<svg width="57" height="56" viewBox="0 0 57 56" fill="none" xmlns="http://www.w3.org/2000/svg">
<path d="M0.03125 0H56.0312V56H0.03125V0Z" stroke="#E5E7EB"/>
<path d="M0.03125 28C0.03125 12.536 12.5673 0 28.0312 0C43.4952 0 56.0312 12.536 56.0312 28C56.0312 43.464 43.4952 56 28.0312 56C12.5673 56 0.03125 43.464 0.03125 28Z" fill="#191919"/>
<path d="M0.03125 28C0.03125 12.536 12.5673 0 28.0312 0C43.4952 0 56.0312 12.536 56.0312 28C56.0312 43.464 43.4952 56 28.0312 56C12.5673 56 0.03125 43.464 0.03125 28Z" stroke="#E5E7EB"/>
<path d="M19.2812 18H36.7812V38H19.2812V18Z" stroke="#E5E7EB"/>
<g clip-path="url(#clip0_162_3912)">
<path d="M29.2812 21.125C29.2812 20.4336 28.7227 19.875 28.0312 19.875C27.3398 19.875 26.7812 20.4336 26.7812 21.125V26.75H21.1562C20.4648 26.75 19.9062 27.3086 19.9062 28C19.9062 28.6914 20.4648 29.25 21.1562 29.25H26.7812V34.875C26.7812 35.5664 27.3398 36.125 28.0312 36.125C28.7227 36.125 29.2812 35.5664 29.2812 34.875V29.25H34.9062C35.5977 29.25 36.1562 28.6914 36.1562 28C36.1562 27.3086 35.5977 26.75 34.9062 26.75H29.2812V21.125Z" fill="white"/>
</g>
<defs>
<clipPath id="clip0_162_3912">
<path d="M19.2812 18H36.7812V38H19.2812V18Z" fill="white"/>
</clipPath>
</defs>
</svg>
