<svg width="21" height="20" viewBox="0 0 21 20" fill="none" xmlns="http://www.w3.org/2000/svg">
<g clip-path="url(#clip0_162_3910)">
<path d="M8.11248 0C6.54507 0 5.2746 1.27175 5.2746 2.8407C5.2746 3.61653 5.585 4.32015 6.08863 4.83283H0.250017V9.56732C0.770417 8.96552 1.53983 8.58388 2.39738 8.58388C3.96478 8.58388 5.23527 9.85562 5.23527 11.4246C5.23527 12.9935 3.96478 14.2652 2.39737 14.2652C1.53983 14.2652 0.770417 13.8836 0.25 13.2818V20H6.38333C5.73477 19.4794 5.31947 18.68 5.31947 17.7831C5.31947 16.2141 6.58995 14.9424 8.15737 14.9424C9.72477 14.9424 10.9952 16.2141 10.9952 17.7831C10.9952 18.68 10.5799 19.4793 9.93137 20H15.4023V14.0658C15.9161 14.5815 16.6269 14.9003 17.4121 14.9003C18.9795 14.9003 20.25 13.6285 20.25 12.0596C20.25 10.4906 18.9795 9.21888 17.4121 9.21888C16.6269 9.21888 15.9161 9.53763 15.4023 10.0534V4.83282H10.1363C10.6401 4.3201 10.9504 3.61663 10.9504 2.84068C10.9504 1.27173 9.67988 0 8.11248 0Z" fill="#9CA3AF"/>
</g>
<defs>
<clipPath id="clip0_162_3910">
<rect width="20" height="20" fill="white" transform="translate(0.25)"/>
</clipPath>
</defs>
</svg>
