<svg width="19" height="20" viewBox="0 0 19 20" fill="none" xmlns="http://www.w3.org/2000/svg">
<g clip-path="url(#clip0_162_3924)">
<g clip-path="url(#clip1_162_3924)">
<path d="M12.625 5C12.625 4.1712 12.2958 3.37634 11.7097 2.79029C11.1237 2.20424 10.3288 1.875 9.5 1.875C8.6712 1.875 7.87634 2.20424 7.29029 2.79029C6.70424 3.37634 6.375 4.1712 6.375 5C6.375 5.8288 6.70424 6.62366 7.29029 7.20971C7.87634 7.79576 8.6712 8.125 9.5 8.125C10.3288 8.125 11.1237 7.79576 11.7097 7.20971C12.2958 6.62366 12.625 5.8288 12.625 5ZM4.5 5C4.5 3.67392 5.02678 2.40215 5.96447 1.46447C6.90215 0.526784 8.17392 0 9.5 0C10.8261 0 12.0979 0.526784 13.0355 1.46447C13.9732 2.40215 14.5 3.67392 14.5 5C14.5 6.32608 13.9732 7.59785 13.0355 8.53553C12.0979 9.47322 10.8261 10 9.5 10C8.17392 10 6.90215 9.47322 5.96447 8.53553C5.02678 7.59785 4.5 6.32608 4.5 5ZM2.67578 18.125H16.3242C15.9766 15.6523 13.8516 13.75 11.2852 13.75H7.71484C5.14844 13.75 3.02344 15.6523 2.67578 18.125ZM0.75 18.8398C0.75 14.9922 3.86719 11.875 7.71484 11.875H11.2852C15.1328 11.875 18.25 14.9922 18.25 18.8398C18.25 19.4805 17.7305 20 17.0898 20H1.91016C1.26953 20 0.75 19.4805 0.75 18.8398Z" fill="#9CA3AF"/>
</g>
</g>
<defs>
<clipPath id="clip0_162_3924">
<rect width="17.5" height="20" fill="white" transform="translate(0.75)"/>
</clipPath>
<clipPath id="clip1_162_3924">
<path d="M0.75 0H18.25V20H0.75V0Z" fill="white"/>
</clipPath>
</defs>
</svg>
