<svg width="21" height="20" viewBox="0 0 21 20" fill="none" xmlns="http://www.w3.org/2000/svg">
<g clip-path="url(#clip0_162_3905)">
<g clip-path="url(#clip1_162_3905)">
<path d="M10.5156 20C13.1678 20 15.7113 18.9464 17.5867 17.0711C19.4621 15.1957 20.5156 12.6522 20.5156 10C20.5156 7.34784 19.4621 4.8043 17.5867 2.92893C15.7113 1.05357 13.1678 0 10.5156 0C7.86346 0 5.31992 1.05357 3.44456 2.92893C1.56919 4.8043 0.515625 7.34784 0.515625 10C0.515625 12.6522 1.56919 15.1957 3.44456 17.0711C5.31992 18.9464 7.86346 20 10.5156 20ZM12.4961 12.6992L6.85938 14.8672C6.10156 15.1602 5.35547 14.4141 5.64844 13.6562L7.81641 8.01953C7.94531 7.6875 8.20312 7.42969 8.53516 7.30078L14.1719 5.13281C14.9297 4.83984 15.6758 5.58594 15.3828 6.34375L13.2148 11.9805C13.0898 12.3125 12.8281 12.5703 12.4961 12.6992ZM11.7656 10C11.7656 9.66848 11.6339 9.35054 11.3995 9.11612C11.1651 8.8817 10.8471 8.75 10.5156 8.75C10.1841 8.75 9.86616 8.8817 9.63174 9.11612C9.39732 9.35054 9.26562 9.66848 9.26562 10C9.26562 10.3315 9.39732 10.6495 9.63174 10.8839C9.86616 11.1183 10.1841 11.25 10.5156 11.25C10.8471 11.25 11.1651 11.1183 11.3995 10.8839C11.6339 10.6495 11.7656 10.3315 11.7656 10Z" fill="#191919"/>
</g>
</g>
<defs>
<clipPath id="clip0_162_3905">
<rect width="20" height="20" fill="white" transform="translate(0.515625)"/>
</clipPath>
<clipPath id="clip1_162_3905">
<path d="M0.515625 0H20.5156V20H0.515625V0Z" fill="white"/>
</clipPath>
</defs>
</svg>
