<svg width="26" height="20" viewBox="0 0 26 20" fill="none" xmlns="http://www.w3.org/2000/svg">
<g clip-path="url(#clip0_162_3919)">
<g clip-path="url(#clip1_162_3919)">
<path d="M5.78125 0C6.61005 0 7.40491 0.32924 7.99096 0.915291C8.57701 1.50134 8.90625 2.2962 8.90625 3.125C8.90625 3.9538 8.57701 4.74866 7.99096 5.33471C7.40491 5.92076 6.61005 6.25 5.78125 6.25C4.95245 6.25 4.15759 5.92076 3.57154 5.33471C2.98549 4.74866 2.65625 3.9538 2.65625 3.125C2.65625 2.2962 2.98549 1.50134 3.57154 0.915291C4.15759 0.32924 4.95245 0 5.78125 0ZM20.1562 0C20.9851 0 21.7799 0.32924 22.366 0.915291C22.952 1.50134 23.2812 2.2962 23.2812 3.125C23.2812 3.9538 22.952 4.74866 22.366 5.33471C21.7799 5.92076 20.9851 6.25 20.1562 6.25C19.3274 6.25 18.5326 5.92076 17.9465 5.33471C17.3605 4.74866 17.0312 3.9538 17.0312 3.125C17.0312 2.2962 17.3605 1.50134 17.9465 0.915291C18.5326 0.32924 19.3274 0 20.1562 0ZM0.15625 11.668C0.15625 9.36719 2.02344 7.5 4.32422 7.5H5.99219C6.61328 7.5 7.20312 7.63672 7.73438 7.87891C7.68359 8.16016 7.66016 8.45312 7.66016 8.75C7.66016 10.2422 8.31641 11.582 9.35156 12.5C9.34375 12.5 9.33594 12.5 9.32422 12.5H0.988281C0.53125 12.5 0.15625 12.125 0.15625 11.668ZM15.9883 12.5C15.9805 12.5 15.9727 12.5 15.9609 12.5C17 11.582 17.6523 10.2422 17.6523 8.75C17.6523 8.45312 17.625 8.16406 17.5781 7.87891C18.1094 7.63281 18.6992 7.5 19.3203 7.5H20.9883C23.2891 7.5 25.1562 9.36719 25.1562 11.668C25.1562 12.1289 24.7812 12.5 24.3242 12.5H15.9883ZM8.90625 8.75C8.90625 7.75544 9.30134 6.80161 10.0046 6.09835C10.7079 5.39509 11.6617 5 12.6562 5C13.6508 5 14.6046 5.39509 15.3079 6.09835C16.0112 6.80161 16.4062 7.75544 16.4062 8.75C16.4062 9.74456 16.0112 10.6984 15.3079 11.4017C14.6046 12.1049 13.6508 12.5 12.6562 12.5C11.6617 12.5 10.7079 12.1049 10.0046 11.4017C9.30134 10.6984 8.90625 9.74456 8.90625 8.75ZM5.15625 18.957C5.15625 16.082 7.48828 13.75 10.3633 13.75H14.9492C17.8242 13.75 20.1562 16.082 20.1562 18.957C20.1562 19.5312 19.6914 20 19.1133 20H6.19922C5.625 20 5.15625 19.5352 5.15625 18.957Z" fill="#9CA3AF"/>
</g>
</g>
<defs>
<clipPath id="clip0_162_3919">
<rect width="25" height="20" fill="white" transform="translate(0.15625)"/>
</clipPath>
<clipPath id="clip1_162_3919">
<path d="M0.15625 0H25.1562V20H0.15625V0Z" fill="white"/>
</clipPath>
</defs>
</svg>
