<svg width="17" height="16" viewBox="0 0 17 16" fill="none" xmlns="http://www.w3.org/2000/svg">
<g clip-path="url(#clip0_162_3870)">
<g clip-path="url(#clip1_162_3870)">
<path d="M4.19063 12.2281C4.59375 11.9344 5.11563 11.8594 5.58438 12.0281C6.4125 12.3281 7.34063 12.5 8.32813 12.5C12.225 12.5 14.8281 9.98438 14.8281 7.5C14.8281 5.01562 12.225 2.5 8.32813 2.5C4.43125 2.5 1.82813 5.01562 1.82813 7.5C1.82813 8.5 2.21563 9.4625 2.94375 10.2875C3.2125 10.5906 3.34375 10.9906 3.3125 11.3969C3.26875 11.9625 3.13438 12.4812 2.95938 12.9406C3.49063 12.6938 3.93125 12.4187 4.19063 12.2312V12.2281ZM0.990626 13.4969C1.04688 13.4125 1.1 13.3281 1.15 13.2437C1.4625 12.725 1.75938 12.0437 1.81875 11.2781C0.881251 10.2125 0.328126 8.90938 0.328126 7.5C0.328126 3.90937 3.90938 1 8.32813 1C12.7469 1 16.3281 3.90937 16.3281 7.5C16.3281 11.0906 12.7469 14 8.32813 14C7.16875 14 6.06875 13.8 5.075 13.4406C4.70313 13.7125 4.09688 14.0844 3.37813 14.3969C2.90625 14.6031 2.36875 14.7906 1.8125 14.9C1.7875 14.9062 1.7625 14.9094 1.7375 14.9156C1.6 14.9406 1.46563 14.9625 1.325 14.975C1.31875 14.975 1.30938 14.9781 1.30313 14.9781C1.14375 14.9937 0.984376 15.0031 0.825001 15.0031C0.621876 15.0031 0.440626 14.8813 0.362501 14.6938C0.284376 14.5063 0.328126 14.2937 0.468751 14.15C0.596875 14.0187 0.712501 13.8781 0.821876 13.7281C0.875001 13.6562 0.925001 13.5844 0.971876 13.5125C0.975001 13.5062 0.978126 13.5031 0.981251 13.4969H0.990626Z" fill="black"/>
</g>
</g>
<defs>
<clipPath id="clip0_162_3870">
<rect width="16" height="16" fill="white" transform="translate(0.328125)"/>
</clipPath>
<clipPath id="clip1_162_3870">
<path d="M0.328125 0H16.3281V16H0.328125V0Z" fill="white"/>
</clipPath>
</defs>
</svg>
