<svg width="20" height="16" viewBox="0 0 20 16" fill="none" xmlns="http://www.w3.org/2000/svg">
<g clip-path="url(#clip0_399_147)">
<g clip-path="url(#clip1_399_147)">
<path d="M2.49999 1.5C2.49999 1.10218 2.65803 0.720644 2.93933 0.43934C3.22064 0.158035 3.60217 0 4 0C4.39782 0 4.77935 0.158035 5.06066 0.43934C5.34196 0.720644 5.5 1.10218 5.5 1.5C5.5 1.89782 5.34196 2.27936 5.06066 2.56066C4.77935 2.84196 4.39782 3 4 3C3.60217 3 3.22064 2.84196 2.93933 2.56066C2.65803 2.27936 2.49999 1.89782 2.49999 1.5ZM4.5 7.55312V9.5875L6.09375 11.1812C6.31562 11.4031 6.46249 11.6875 6.5125 11.9969L6.9875 14.8375C7.07812 15.3812 6.70937 15.8969 6.16562 15.9875C5.62187 16.0781 5.10625 15.7094 5.01562 15.1656L4.56875 12.4812L2.0875 10C1.7125 9.625 1.49999 9.11563 1.49999 8.58438V5.83125C1.49999 4.81875 2.31874 4 3.33124 4C4.08437 4 4.78437 4.375 5.20312 5L6.68437 7.22188L7 7.37813V5C7 4.44688 7.44687 4 8 4H12C12.5531 4 13 4.44688 13 5V7.38125L13.3156 7.225L14.7969 5C15.2125 4.375 15.9156 4 16.6687 4C17.6812 4 18.5 4.81875 18.5 5.83125V8.58438C18.5 9.11563 18.2906 9.625 17.9156 10L15.4344 12.4812L14.9875 15.1656C14.8969 15.7094 14.3812 16.0781 13.8375 15.9875C13.2937 15.8969 12.925 15.3812 13.0156 14.8375L13.4906 11.9969C13.5406 11.6875 13.6875 11.4031 13.9094 11.1812L15.5031 9.5875V7.55312L14.9094 8.44375C14.7656 8.6625 14.5656 8.8375 14.3312 8.95312L12.4687 9.88437C12.3937 9.925 12.3156 9.95312 12.2312 9.97188C12.15 9.99063 12.0656 10 11.9844 9.99687H8.02187C7.94375 10 7.86562 9.99063 7.7875 9.975C7.69687 9.95625 7.6125 9.925 7.53437 9.88125L5.675 8.95C5.44062 8.83437 5.24375 8.65625 5.09687 8.44063L4.50312 7.55L4.5 7.55312ZM0.07187 14.6281L1.56562 10.8938L3.10312 12.4312L1.92812 15.3687C1.72187 15.8812 1.14062 16.1313 0.62812 15.925C0.11562 15.7188 -0.13438 15.1406 0.07187 14.6281ZM16 0C16.3978 0 16.7793 0.158035 17.0607 0.43934C17.342 0.720644 17.5 1.10218 17.5 1.5C17.5 1.89782 17.342 2.27936 17.0607 2.56066C16.7793 2.84196 16.3978 3 16 3C15.6022 3 15.2206 2.84196 14.9393 2.56066C14.658 2.27936 14.5 1.89782 14.5 1.5C14.5 1.10218 14.658 0.720644 14.9393 0.43934C15.2206 0.158035 15.6022 0 16 0ZM18.4344 10.8938L19.9281 14.6281C20.1344 15.1406 19.8844 15.7219 19.3719 15.9281C18.8594 16.1344 18.2781 15.8844 18.0719 15.3719L16.8969 12.4344L18.4344 10.8969V10.8938Z" fill="#6B7280"/>
</g>
</g>
<defs>
<clipPath id="clip0_399_147">
<rect width="20" height="16" fill="white"/>
</clipPath>
<clipPath id="clip1_399_147">
<path d="M0 0H20V16H0V0Z" fill="white"/>
</clipPath>
</defs>
</svg>
